<svg width="1369" height="690" viewBox="0 0 1369 690" fill="none" xmlns="http://www.w3.org/2000/svg">
<rect x="2" width="1364" height="690" fill="white"/>
<g filter="url(#filter0_d_117_38)">
<circle cx="752" cy="257" r="165" fill="#A2A1A1"/>
<circle cx="752" cy="257" r="165" stroke="black" stroke-width="3"/>
</g>
<path d="M2 274.838C756.5 -71.1617 674 1002.84 1366 584.338" stroke="black" stroke-width="8"/>
<path d="M218.462 256.739C217.291 255.568 215.391 255.568 214.22 256.739L195.128 275.831C193.956 277.003 193.956 278.902 195.128 280.074C196.299 281.245 198.199 281.245 199.371 280.074L216.341 263.103L233.312 280.074C234.483 281.245 236.383 281.245 237.554 280.074C238.726 278.902 238.726 277.003 237.554 275.831L218.462 256.739ZM219.341 455.52L219.341 258.86H213.341L213.341 455.52H219.341Z" fill="black"/>
<path d="M415.121 457.625C416.293 456.454 416.293 454.554 415.121 453.383L396.03 434.291C394.858 433.119 392.958 433.119 391.787 434.291C390.615 435.462 390.615 437.362 391.787 438.533L408.757 455.504L391.787 472.475C390.615 473.646 390.615 475.546 391.787 476.717C392.958 477.889 394.858 477.889 396.03 476.717L415.121 457.625ZM216.341 458.504H413V452.504H216.341V458.504Z" fill="black"/>
<path d="M165.88 333.8C164.472 337.704 162.936 340.872 161.272 343.304C159.608 345.8 157.624 347.592 155.32 348.68C153.016 349.832 150.136 350.408 146.68 350.408V342.728C151.288 342.728 154.776 341.992 157.144 340.52C159.512 339.112 161.4 336.456 162.808 332.552L164.056 329H161.272L147.16 288.68C146.52 286.824 146.04 285.736 145.72 285.416C145.4 285.032 144.728 284.776 143.704 284.648L138.808 284.072V281.48H160.696V284.072L155.8 284.648C154.904 284.712 154.392 284.936 154.264 285.32C154.136 285.704 154.392 286.824 155.032 288.68L166.552 321.896L178.168 288.584C178.744 286.728 178.968 285.64 178.84 285.32C178.776 285 178.264 284.776 177.304 284.648L172.312 284.072V281.48H189.88V284.072L184.984 284.648C184.024 284.776 183.384 285 183.064 285.32C182.744 285.64 182.264 286.728 181.624 288.584L165.88 333.8Z" fill="black"/>
<path d="M390.127 547.008V549.504H371.887V547.008L376.783 546.432C377.487 546.368 377.999 546.272 378.319 546.144C378.703 545.952 379.119 545.6 379.567 545.088C380.015 544.512 380.655 543.584 381.487 542.304L392.527 526.368L381.871 509.184C381.103 507.904 380.495 507.008 380.047 506.496C379.663 505.92 379.279 505.568 378.895 505.44C378.575 505.248 378.095 505.12 377.455 505.056L372.463 504.576V501.984H395.023V504.576L390.127 505.056C389.103 505.184 388.591 505.44 388.591 505.824C388.591 506.144 389.199 507.264 390.415 509.184L397.807 521.088L405.967 509.184C407.247 507.328 407.855 506.208 407.791 505.824C407.791 505.44 407.311 505.184 406.351 505.056L401.455 504.576V501.984H419.695V504.576L414.799 505.056C414.159 505.12 413.647 505.248 413.263 505.44C412.879 505.568 412.463 505.92 412.015 506.496C411.631 507.008 410.991 507.904 410.095 509.184L399.727 524.16L410.959 542.304C411.727 543.584 412.303 544.512 412.687 545.088C413.135 545.6 413.519 545.952 413.839 546.144C414.223 546.272 414.735 546.368 415.375 546.432L420.367 547.008V549.504H397.807V547.008L402.703 546.432C403.727 546.304 404.239 546.08 404.239 545.76C404.239 545.44 403.631 544.288 402.415 542.304L394.447 529.44L385.615 542.304C384.335 544.224 383.695 545.376 383.695 545.76C383.759 546.08 384.271 546.304 385.231 546.432L390.127 547.008Z" fill="black"/>
<path d="M751.939 571.061C752.525 571.646 753.475 571.646 754.061 571.061L763.607 561.515C764.192 560.929 764.192 559.979 763.607 559.393C763.021 558.808 762.071 558.808 761.485 559.393L753 567.879L744.515 559.393C743.929 558.808 742.979 558.808 742.393 559.393C741.808 559.979 741.808 560.929 742.393 561.515L751.939 571.061ZM751.5 257V570H754.5V257H751.5Z" fill="#F91919"/>
<path d="M707.36 539.96V541H697.92V539.96L700.12 539.72C700.547 539.667 700.8 539.56 700.88 539.4C700.96 539.24 701 538.693 701 537.76V527.8C701 525.827 700.693 524.44 700.08 523.64C699.493 522.813 698.627 522.4 697.48 522.4C696.653 522.4 695.72 522.667 694.68 523.2C693.667 523.733 692.693 524.76 691.76 526.28V537.76C691.76 538.693 691.8 539.24 691.88 539.4C691.96 539.56 692.213 539.667 692.64 539.72L694.84 539.96V541H685.4V539.96L687.6 539.72C688.027 539.667 688.28 539.56 688.36 539.4C688.44 539.24 688.48 538.693 688.48 537.76V524.44C688.48 523.507 688.44 522.96 688.36 522.8C688.28 522.64 688.027 522.533 687.6 522.48L685.4 522.28V521.2H691.56V524.44C692.493 523.187 693.547 522.267 694.72 521.68C695.92 521.093 697.107 520.8 698.28 520.8C701.16 520.8 703.013 522.12 703.84 524.76C704.827 523.373 705.92 522.373 707.12 521.76C708.347 521.12 709.573 520.8 710.8 520.8C712.693 520.8 714.16 521.413 715.2 522.64C716.267 523.84 716.8 525.547 716.8 527.76V537.76C716.8 538.693 716.84 539.24 716.92 539.4C717 539.56 717.253 539.667 717.68 539.72L719.88 539.96V541H710.44V539.96L712.64 539.72C713.067 539.667 713.32 539.56 713.4 539.4C713.48 539.24 713.52 538.693 713.52 537.76V527.8C713.52 525.827 713.213 524.44 712.6 523.64C712.013 522.813 711.147 522.4 710 522.4C709.173 522.4 708.227 522.68 707.16 523.24C706.12 523.773 705.133 524.827 704.2 526.4C704.227 526.613 704.24 526.84 704.24 527.08C704.267 527.293 704.28 527.52 704.28 527.76V537.76C704.28 538.693 704.32 539.24 704.4 539.4C704.48 539.56 704.733 539.667 705.16 539.72L707.36 539.96ZM740.837 543.32C740.837 545.453 740.05 547.08 738.477 548.2C736.93 549.347 734.77 549.92 731.997 549.92C728.957 549.92 726.73 549.387 725.317 548.32C723.904 547.28 723.17 545.96 723.117 544.36L726.077 543.76C725.97 545.227 726.357 546.4 727.237 547.28C728.144 548.187 729.73 548.64 731.997 548.64C734.024 548.64 735.65 548.267 736.877 547.52C738.13 546.773 738.757 545.68 738.757 544.24C738.757 543.173 738.397 542.373 737.677 541.84C736.957 541.307 735.77 541.04 734.117 541.04H729.357C727.57 541.04 726.317 540.667 725.597 539.92C724.877 539.147 724.517 538.293 724.517 537.36C724.517 536.587 724.704 535.867 725.077 535.2C725.477 534.507 726.104 533.827 726.957 533.16C725.89 532.653 725.024 531.92 724.357 530.96C723.69 529.973 723.357 528.787 723.357 527.4C723.357 525.933 723.69 524.72 724.357 523.76C725.05 522.773 725.957 522.04 727.077 521.56C728.224 521.053 729.49 520.8 730.877 520.8H731.557C733.024 520.8 734.33 521.067 735.477 521.6L741.277 519.6L741.717 522.6H737.037C737.65 523.133 738.13 523.8 738.477 524.6C738.85 525.4 739.037 526.333 739.037 527.4C739.037 528.813 738.69 530.013 737.997 531C737.33 531.987 736.437 532.733 735.317 533.24C734.197 533.72 732.944 533.96 731.557 533.96H730.877C730.424 533.96 729.984 533.933 729.557 533.88C729.13 533.827 728.717 533.747 728.317 533.64C727.73 534.04 727.304 534.453 727.037 534.88C726.797 535.307 726.677 535.747 726.677 536.2C726.677 536.733 726.864 537.16 727.237 537.48C727.637 537.8 728.264 537.96 729.117 537.96H734.317C736.424 537.96 738.037 538.413 739.157 539.32C740.277 540.227 740.837 541.56 740.837 543.32ZM731.557 532.68C732.277 532.68 732.93 532.52 733.517 532.2C734.13 531.88 734.624 531.347 734.997 530.6C735.37 529.827 735.557 528.76 735.557 527.4C735.557 526.013 735.37 524.947 734.997 524.2C734.624 523.427 734.13 522.88 733.517 522.56C732.93 522.24 732.277 522.08 731.557 522.08H730.877C730.157 522.08 729.49 522.24 728.877 522.56C728.264 522.88 727.77 523.427 727.397 524.2C727.024 524.947 726.837 526.013 726.837 527.4C726.837 528.76 727.024 529.827 727.397 530.6C727.77 531.347 728.264 531.88 728.877 532.2C729.49 532.52 730.157 532.68 730.877 532.68H731.557Z" fill="#F91919"/>
<mask id="path-10-inside-1_117_38" fill="white">
<path d="M532 378.5C532 362.877 535.47 347.449 542.159 333.331C548.847 319.212 558.588 306.756 570.678 296.86L637.5 378.5L532 378.5Z"/>
</mask>
<path d="M532 378.5C532 362.877 535.47 347.449 542.159 333.331C548.847 319.212 558.588 306.756 570.678 296.86L637.5 378.5L532 378.5Z" stroke="black" stroke-width="4" mask="url(#path-10-inside-1_117_38)"/>
<path d="M499.92 316.88V315.8H510.8C513.413 315.8 515.373 316.413 516.68 317.64C517.987 318.84 518.64 320.387 518.64 322.28V323.36C518.64 324.747 518.227 325.933 517.4 326.92C516.573 327.907 515.413 328.6 513.92 329C515.787 329.32 517.24 330.027 518.28 331.12C519.32 332.213 519.84 333.587 519.84 335.24V336.32C519.84 338.267 519.16 339.867 517.8 341.12C516.467 342.373 514.467 343 511.8 343H499.92V341.96L502.12 341.72C502.547 341.667 502.8 341.56 502.88 341.4C502.96 341.24 503 340.693 503 339.76V319.04C503 318.107 502.96 317.56 502.88 317.4C502.8 317.24 502.547 317.133 502.12 317.08L499.92 316.88ZM510.8 317.08H506.48V328.52H510.8C513.573 328.52 514.96 326.907 514.96 323.68V322.04C514.96 318.733 513.573 317.08 510.8 317.08ZM511.8 329.8H506.48V341.72H511.8C514.707 341.72 516.16 340 516.16 336.56V334.92C516.16 333.267 515.787 332 515.04 331.12C514.32 330.24 513.24 329.8 511.8 329.8Z" fill="black"/>
<g filter="url(#filter1_d_117_38)">
<line x1="439" y1="377" x2="856.03" y2="377" stroke="black" stroke-width="4" stroke-dasharray="5 5"/>
</g>
<path d="M473.129 182.506C472.304 182.434 471.577 183.046 471.506 183.871L470.344 197.321C470.273 198.146 470.884 198.873 471.71 198.944C472.535 199.016 473.262 198.404 473.333 197.579L474.365 185.623L486.321 186.656C487.146 186.727 487.873 186.116 487.944 185.29C488.016 184.465 487.404 183.738 486.579 183.667L473.129 182.506ZM638.148 378.035L474.148 183.035L471.852 184.965L635.852 379.965L638.148 378.035Z" fill="#1F14A3"/>
<path d="M514.64 197.96V199H504.4V197.96L506.6 197.72C507.027 197.667 507.28 197.56 507.36 197.4C507.44 197.24 507.48 196.693 507.48 195.76V182.44C507.48 181.507 507.44 180.96 507.36 180.8C507.307 180.64 507.053 180.533 506.6 180.48L504.4 180.28V179.2H507.48V176.32C507.48 175.067 507.667 173.88 508.04 172.76C508.44 171.64 509.12 170.733 510.08 170.04C511.04 169.347 512.36 169 514.04 169C516.253 169 517.893 169.6 518.96 170.8C520.027 172 520.413 173.467 520.12 175.2L517 175.64C517.24 173.8 517.107 172.453 516.6 171.6C516.12 170.72 515.267 170.28 514.04 170.28C513.347 170.28 512.747 170.44 512.24 170.76C511.76 171.053 511.387 171.6 511.12 172.4C510.88 173.173 510.76 174.293 510.76 175.76V179.2H517.12V180.48H510.76V195.76C510.76 196.693 510.8 197.253 510.88 197.44C510.96 197.6 511.213 197.693 511.64 197.72L514.64 197.96Z" fill="#1F14A3"/>
<path d="M993.5 6.96492C993.48 6.13672 992.793 5.48103 991.965 5.5004L978.469 5.81599C977.64 5.83536 976.985 6.52245 977.004 7.35065C977.023 8.17885 977.711 8.83454 978.539 8.81517L990.535 8.53465L990.816 20.5314C990.835 21.3596 991.522 22.0153 992.351 21.9959C993.179 21.9765 993.835 21.2894 993.815 20.4612L993.5 6.96492ZM638.085 380.036L993.085 8.03556L990.915 5.96441L635.915 377.964L638.085 380.036Z" fill="#48821B"/>
<path d="M996.44 56.88V55.8H1004.08V56.88L1001.88 57.08C1001.45 57.1333 1001.2 57.2533 1001.12 57.44C1001.04 57.6 1001 58.1333 1001 59.04V83H999.04L984.48 58.44V79.76C984.48 80.6667 984.52 81.2133 984.6 81.4C984.68 81.56 984.933 81.6667 985.36 81.72L987.56 81.96V83H979.92V81.96L982.12 81.72C982.547 81.6667 982.8 81.56 982.88 81.4C982.96 81.2133 983 80.6667 983 79.76V59.04C983 58.1333 982.96 57.6 982.88 57.44C982.8 57.2533 982.547 57.1333 982.12 57.08L979.92 56.88V55.8H986.84L999.52 77.24V59.04C999.52 58.1333 999.48 57.6 999.4 57.44C999.32 57.2533 999.067 57.1333 998.64 57.08L996.44 56.88Z" fill="#48821B"/>
<defs>
<filter id="filter0_d_117_38" x="581.5" y="90.5" width="341" height="341" filterUnits="userSpaceOnUse" color-interpolation-filters="sRGB">
<feFlood flood-opacity="0" result="BackgroundImageFix"/>
<feColorMatrix in="SourceAlpha" type="matrix" values="0 0 0 0 0 0 0 0 0 0 0 0 0 0 0 0 0 0 127 0" result="hardAlpha"/>
<feOffset dy="4"/>
<feGaussianBlur stdDeviation="2"/>
<feComposite in2="hardAlpha" operator="out"/>
<feColorMatrix type="matrix" values="0 0 0 0 0 0 0 0 0 0 0 0 0 0 0 0 0 0 0.25 0"/>
<feBlend mode="normal" in2="BackgroundImageFix" result="effect1_dropShadow_117_38"/>
<feBlend mode="normal" in="SourceGraphic" in2="effect1_dropShadow_117_38" result="shape"/>
</filter>
<filter id="filter1_d_117_38" x="435" y="375" width="425.03" height="12" filterUnits="userSpaceOnUse" color-interpolation-filters="sRGB">
<feFlood flood-opacity="0" result="BackgroundImageFix"/>
<feColorMatrix in="SourceAlpha" type="matrix" values="0 0 0 0 0 0 0 0 0 0 0 0 0 0 0 0 0 0 127 0" result="hardAlpha"/>
<feOffset dy="4"/>
<feGaussianBlur stdDeviation="2"/>
<feComposite in2="hardAlpha" operator="out"/>
<feColorMatrix type="matrix" values="0 0 0 0 0 0 0 0 0 0 0 0 0 0 0 0 0 0 0.25 0"/>
<feBlend mode="normal" in2="BackgroundImageFix" result="effect1_dropShadow_117_38"/>
<feBlend mode="normal" in="SourceGraphic" in2="effect1_dropShadow_117_38" result="shape"/>
</filter>
</defs>
</svg>
